<?xml version="1.0" encoding="utf-8"?>
<!-- Generator: Adobe Illustrator 22.1.0, SVG Export Plug-In . SVG Version: 6.00 Build 0)  -->
<svg version="1.1" id="Layer_1" xmlns="http://www.w3.org/2000/svg" xmlns:xlink="http://www.w3.org/1999/xlink" x="0px" y="0px"
	 viewBox="0 0 212.8 212.8" style="enable-background:new 0 0 212.8 212.8;" xml:space="preserve">
<style type="text/css">
	.st0{fill:#7F776A;stroke:#4C4740;stroke-width:2;stroke-miterlimit:10;}
	.st1{fill:none;}
	.st2{fill:#CBC89E;}
	.st3{font-family:'AbrahamStamp-Stamp';}
	.st4{font-size:40px;}
	.st5{fill:#F2EAD5;}
	.st6{font-family:'Timeless-Bold';}
	.st7{font-size:16px;}
	.st8{fill:none;stroke:#F2EAD5;stroke-linecap:round;stroke-miterlimit:10;}
	.st9{font-family:'Timeless-Normal';}
	.st10{font-size:32px;}
	.st11{fill:#CBC89E;stroke:#000000;stroke-width:0.25;stroke-miterlimit:10;}
</style>
<circle class="st0" cx="106.4" cy="106.4" r="105.4"/>
<rect x="11.4" y="79.9" class="st1" width="189.9" height="28.1"/>
<text transform="matrix(1 0 0 1 11.565 107.6913)" class="st2 st3 st4">MARIAS BOTIQUE</text>
<rect x="71.7" y="119.4" class="st1" width="69.4" height="11.8"/>
<text transform="matrix(1 0 0 1 90.7674 130.7275)" class="st5 st6 st7">EST. </text>
<line class="st8" x1="145.4" y1="125.3" x2="202.4" y2="125.3"/>
<rect x="81.3" y="73.1" class="st1" width="8.6" height="24.5"/>
<text transform="matrix(1 0 0 1 81.3413 95.8584)" class="st2 st9 st10">’</text>
<g>
	<path class="st11" d="M165.6,137.1c-2.7-3.9-5.4-7.7-8.1-11.6c1.4-0.1,2.6,0.1,3.3,0.3c0.8,0.2,1.8,0.5,2.9,1.3
		c0.4,0.3,1,0.9,1.5,1.8c0.5,1.2,0.3,2.1,0.2,3.5C165.3,133.5,165.3,135.1,165.6,137.1z"/>
	<path class="st11" d="M157.4,125.4c2.7,3.8,5.4,7.6,8,11.4c-1.4,0.1-2.5-0.1-3.2-0.3c-0.8-0.2-1.8-0.5-2.8-1.3
		c-0.4-0.3-1-0.9-1.5-1.8c-0.5-1.2-0.3-2.1-0.2-3.4C157.8,128.9,157.8,127.3,157.4,125.4z"/>
</g>
<g>
	<path class="st11" d="M190.3,136.8c-2.7-3.9-5.4-7.7-8.1-11.6c1.4-0.1,2.6,0.1,3.3,0.3c0.8,0.2,1.8,0.5,2.9,1.3
		c0.4,0.3,1,0.9,1.5,1.8c0.5,1.2,0.3,2.1,0.2,3.5C190,133.2,190,134.8,190.3,136.8z"/>
	<path class="st11" d="M182.1,125.1c2.7,3.8,5.4,7.6,8,11.4c-1.4,0.1-2.5-0.1-3.2-0.3c-0.8-0.2-1.8-0.5-2.8-1.3
		c-0.4-0.3-1-0.9-1.5-1.8c-0.5-1.2-0.3-2.1-0.2-3.4C182.5,128.6,182.5,127,182.1,125.1z"/>
</g>
<g>
	<path class="st11" d="M170.9,125.2c2.7-3.9,5.4-7.7,8.1-11.6c-1.4-0.1-2.6,0.1-3.3,0.3c-0.8,0.2-1.8,0.5-2.9,1.3
		c-0.4,0.3-1,0.9-1.5,1.8c-0.5,1.2-0.3,2.1-0.2,3.5C171.3,121.6,171.3,123.2,170.9,125.2z"/>
	<path class="st11" d="M179.2,113.5c-2.7,3.8-5.4,7.6-8,11.4c1.4,0.1,2.5-0.1,3.2-0.3c0.8-0.2,1.8-0.5,2.8-1.3
		c0.4-0.3,1-0.9,1.5-1.8c0.5-1.2,0.3-2.1,0.2-3.4C178.8,117,178.8,115.5,179.2,113.5z"/>
</g>
<line class="st8" x1="66.4" y1="125.4" x2="9.3" y2="125.4"/>
<g>
	<path class="st11" d="M46.1,137.2c2.7-3.9,5.4-7.7,8.1-11.6c-1.4-0.1-2.6,0.1-3.3,0.3c-0.8,0.2-1.8,0.5-2.9,1.3
		c-0.4,0.3-1,0.9-1.5,1.8c-0.5,1.2-0.3,2.1-0.2,3.5C46.5,133.6,46.5,135.2,46.1,137.2z"/>
	<path class="st11" d="M54.3,125.5c-2.7,3.8-5.4,7.6-8,11.4c1.4,0.1,2.5-0.1,3.2-0.3c0.8-0.2,1.8-0.5,2.8-1.3c0.4-0.3,1-0.9,1.5-1.8
		c0.5-1.2,0.3-2.1,0.2-3.4C53.9,129,53.9,127.4,54.3,125.5z"/>
</g>
<g>
	<path class="st11" d="M21.4,136.9c2.7-3.9,5.4-7.7,8.1-11.6c-1.4-0.1-2.6,0.1-3.3,0.3c-0.8,0.2-1.8,0.5-2.9,1.3
		c-0.4,0.3-1,0.9-1.5,1.8c-0.5,1.2-0.3,2.1-0.2,3.5C21.8,133.3,21.8,134.9,21.4,136.9z"/>
	<path class="st11" d="M29.6,125.2c-2.7,3.8-5.4,7.6-8,11.4c1.4,0.1,2.5-0.1,3.2-0.3c0.8-0.2,1.8-0.5,2.8-1.3c0.4-0.3,1-0.9,1.5-1.8
		c0.5-1.2,0.3-2.1,0.2-3.4C29.2,128.7,29.2,127.2,29.6,125.2z"/>
</g>
<g>
	<path class="st11" d="M40.8,125.3c-2.7-3.9-5.4-7.7-8.1-11.6c1.4-0.1,2.6,0.1,3.3,0.3c0.8,0.2,1.8,0.5,2.9,1.3
		c0.4,0.3,1,0.9,1.5,1.8c0.5,1.2,0.3,2.1,0.2,3.5C40.4,121.7,40.4,123.3,40.8,125.3z"/>
	<path class="st11" d="M32.6,113.6c2.7,3.8,5.4,7.6,8,11.4c-1.4,0.1-2.5-0.1-3.2-0.3c-0.8-0.2-1.8-0.5-2.8-1.3
		c-0.4-0.3-1-0.9-1.5-1.8c-0.5-1.2-0.3-2.1-0.2-3.4C32.9,117.2,32.9,115.6,32.6,113.6z"/>
</g>
</svg>
