<?xml version="1.0" encoding="utf-8"?>
<!-- Generator: Adobe Illustrator 22.1.0, SVG Export Plug-In . SVG Version: 6.00 Build 0)  -->
<svg version="1.1" id="Layer_1" xmlns="http://www.w3.org/2000/svg" xmlns:xlink="http://www.w3.org/1999/xlink" x="0px" y="0px"
	 viewBox="0 0 150 150" style="enable-background:new 0 0 150 150;" xml:space="preserve">
<style type="text/css">
	.st0{fill:#80786B;stroke:#4D4841;stroke-width:2;stroke-miterlimit:10;}
	.st1{fill:none;}
	.st2{fill:#CAC89E;}
	.st3{font-family:'AbrahamStamp-Stamp';}
	.st4{font-size:28.2113px;}
	.st5{fill:#F2EAD5;}
	.st6{font-family:'Timeless-Bold';}
	.st7{font-size:11.2845px;}
	.st8{fill:none;stroke:#F2EAD5;stroke-linecap:round;stroke-miterlimit:10;}
	.st9{font-family:'Timeless-Normal';}
	.st10{font-size:22.5691px;}
	.st11{fill:#CAC89E;stroke:#010101;stroke-width:0.25;stroke-miterlimit:10;}
</style>
<circle class="st0" cx="75.3" cy="75.3" r="74.3"/>
<rect x="8.3" y="56.6" class="st1" width="133.9" height="19.8"/>
<text transform="matrix(1 0 0 1 8.4111 76.2476)" class="st2 st3 st4">MARIAS BOTIQUE</text>
<rect x="50.8" y="84.5" class="st1" width="48.9" height="8.3"/>
<text transform="matrix(1 0 0 1 50.8242 92.4961)" class="st5 st6 st7">EST. </text>
<line class="st8" x1="102.8" y1="88.7" x2="143" y2="88.7"/>
<rect x="57.6" y="51.9" class="st1" width="6.1" height="17.3"/>
<text transform="matrix(1 0 0 1 57.623 67.9038)" class="st2 st9 st10">’</text>
<g>
	<path class="st11" d="M117,97c-1.9-2.8-3.8-5.4-5.7-8.2c1-0.1,1.8,0.1,2.3,0.2c0.6,0.1,1.3,0.4,2,0.9c0.3,0.2,0.7,0.6,1.1,1.3
		c0.4,0.8,0.2,1.5,0.1,2.5C116.8,94.4,116.8,95.6,117,97z"/>
	<path class="st11" d="M111.3,88.7c1.9,2.7,3.8,5.4,5.6,8c-1,0.1-1.8-0.1-2.3-0.2c-0.6-0.1-1.3-0.4-2-0.9c-0.3-0.2-0.7-0.6-1.1-1.3
		c-0.4-0.8-0.2-1.5-0.1-2.4C111.5,91.2,111.5,90.1,111.3,88.7z"/>
</g>
<g>
	<path class="st11" d="M134.5,96.8c-1.9-2.8-3.8-5.4-5.7-8.2c1-0.1,1.8,0.1,2.3,0.2c0.6,0.1,1.3,0.4,2,0.9c0.3,0.2,0.7,0.6,1.1,1.3
		c0.4,0.8,0.2,1.5,0.1,2.5C134.3,94.2,134.3,95.4,134.5,96.8z"/>
	<path class="st11" d="M128.7,88.5c1.9,2.7,3.8,5.4,5.6,8c-1,0.1-1.8-0.1-2.3-0.2c-0.6-0.1-1.3-0.4-2-0.9c-0.3-0.2-0.7-0.6-1.1-1.3
		c-0.4-0.8-0.2-1.5-0.1-2.4C129,91,129,89.9,128.7,88.5z"/>
</g>
<g>
	<path class="st11" d="M120.8,88.6c1.9-2.8,3.8-5.4,5.7-8.2c-1-0.1-1.8,0.1-2.3,0.2c-0.6,0.1-1.3,0.4-2,0.9
		c-0.3,0.2-0.7,0.6-1.1,1.3c-0.4,0.8-0.2,1.5-0.1,2.5C121.1,86.1,121.1,87.2,120.8,88.6z"/>
	<path class="st11" d="M126.6,80.3c-1.9,2.7-3.8,5.4-5.6,8c1,0.1,1.8-0.1,2.3-0.2c0.6-0.1,1.3-0.4,2-0.9c0.3-0.2,0.7-0.6,1.1-1.3
		c0.4-0.8,0.2-1.5,0.1-2.4C126.4,82.8,126.4,81.8,126.6,80.3z"/>
</g>
<line class="st8" x1="47.1" y1="88.7" x2="6.8" y2="88.7"/>
<g>
	<path class="st11" d="M32.8,97.1c1.9-2.8,3.8-5.4,5.7-8.2c-1-0.1-1.8,0.1-2.3,0.2c-0.6,0.1-1.3,0.4-2,0.9c-0.3,0.2-0.7,0.6-1.1,1.3
		c-0.4,0.8-0.2,1.5-0.1,2.5C33.1,94.5,33.1,95.6,32.8,97.1z"/>
	<path class="st11" d="M38.6,88.8c-1.9,2.7-3.8,5.4-5.6,8c1,0.1,1.8-0.1,2.3-0.2c0.6-0.1,1.3-0.4,2-0.9c0.3-0.2,0.7-0.6,1.1-1.3
		c0.4-0.8,0.2-1.5,0.1-2.4C38.3,91.3,38.3,90.1,38.6,88.8z"/>
</g>
<g>
	<path class="st11" d="M15.3,96.8c1.9-2.8,3.8-5.4,5.7-8.2c-1-0.1-1.8,0.1-2.3,0.2c-0.6,0.1-1.3,0.4-2,0.9c-0.3,0.2-0.7,0.6-1.1,1.3
		c-0.4,0.8-0.2,1.5-0.1,2.5C15.6,94.3,15.6,95.4,15.3,96.8z"/>
	<path class="st11" d="M21.1,88.6c-1.9,2.7-3.8,5.4-5.6,8c1,0.1,1.8-0.1,2.3-0.2c0.6-0.1,1.3-0.4,2-0.9c0.3-0.2,0.7-0.6,1.1-1.3
		c0.4-0.8,0.2-1.5,0.1-2.4C20.8,91.1,20.8,90,21.1,88.6z"/>
</g>
<g>
	<path class="st11" d="M29,88.7c-1.9-2.8-3.8-5.4-5.7-8.2c1-0.1,1.8,0.1,2.3,0.2c0.6,0.1,1.3,0.4,2,0.9c0.3,0.2,0.7,0.6,1.1,1.3
		c0.4,0.8,0.2,1.5,0.1,2.5C28.7,86.1,28.7,87.3,29,88.7z"/>
	<path class="st11" d="M23.2,80.4c1.9,2.7,3.8,5.4,5.6,8c-1,0.1-1.8-0.1-2.3-0.2c-0.6-0.1-1.3-0.4-2-0.9c-0.3-0.2-0.7-0.6-1.1-1.3
		c-0.4-0.8-0.2-1.5-0.1-2.4C23.5,83,23.5,81.8,23.2,80.4z"/>
</g>
<text transform="matrix(1 0 0 1 75.8818 92.4961)" class="st5 st6 st7">2020</text>
</svg>
