<?xml version="1.0" encoding="utf-8"?>
<!-- Generator: Adobe Illustrator 22.1.0, SVG Export Plug-In . SVG Version: 6.00 Build 0)  -->
<svg version="1.1" id="Layer_1" xmlns="http://www.w3.org/2000/svg" xmlns:xlink="http://www.w3.org/1999/xlink" x="0px" y="0px"
	 viewBox="0 0 2880 350" style="enable-background:new 0 0 2880 350;" xml:space="preserve">
<style type="text/css">
	.st0{fill:#F2EAD5;stroke:#000000;stroke-width:2;stroke-miterlimit:10;}
	.st1{fill:none;stroke:#000000;stroke-width:3;stroke-miterlimit:10;}
	.st2{fill:#F2EAD5;stroke:#000000;stroke-width:3;stroke-miterlimit:10;}
	.st3{fill:#FFFFFF;}
</style>
<path class="st0" d="M2654.6,196c-21.5-23.5-36.4-48.5-36.5-63.2c0-1.6-0.1-10.6,4.6-12.6c4.9-2.1,11.8,4.6,12.6,5.4
	C2645.8,135.7,2653.2,164.1,2654.6,196z"/>
<path class="st0" d="M2657.3,198.8c-7.6-30.9-8.7-60.1-1.7-73c0.7-1.4,5-9.3,10.1-8.8c5.3,0.5,8.2,9.7,8.5,10.8
	C2678.4,141.7,2671.3,170.1,2657.3,198.8z"/>
<path class="st1" d="M4,204.6c18.6,0,68.7,3.2,77.6,0"/>
<path class="st1" d="M92.4,200c6.4-4.7,41.5-29.6,51.5-25"/>
<path class="st1" d="M152.6,179c8.8,8.8,17,41.5,28.7,42.1"/>
<path class="st1" d="M193.6,221.1c10.5,0,36.3,2.3,46.8-2.9"/>
<path class="st1" d="M251.9,216.3c14.4-1.3,44.4,6.3,62.8,16.6"/>
<path class="st1" d="M328.6,241.9c6.7,4.9,48,38.1,61,29.6"/>
<path class="st1" d="M399.9,263.9c9.9-10.3,32.3-27.8,41.7-30.9"/>
<path class="st1" d="M461.4,228.4c12.1-3.1,28.3-10.3,32.7-18.8"/>
<path class="st1" d="M502.2,201.1c4.5-5.8,26-37.7,40.8-32.7"/>
<path class="st1" d="M549.4,172c4.6,4.2,15.4,26.4,24.2,29.1"/>
<path class="st1" d="M581.1,206.2c12.1,10,28.8,18.3,33.8,40"/>
<path class="st1" d="M615.8,253.3c0.8,7.1,15.8,43.8,32.5,27.9"/>
<path class="st1" d="M655.7,275.8c2.9-5,24.6-41.7,34.6-35.8"/>
<path class="st1" d="M696.5,241.6c6.7,3.8,35.8,5.4,47.9,0"/>
<path class="st1" d="M756.9,239.3c11.7-3.5,21.7-5.6,31.3-13.1"/>
<path class="st1" d="M796.1,222.9c11.3-7.5,30.8-23.8,50-15.4"/>
<path class="st1" d="M855.2,211.3c7.3,4.7,45.6,47.7,59.1,38.4"/>
<path class="st1" d="M931.9,242.4c9.9-9.3,24.9-60.7,47.7-58.1"/>
<path class="st1" d="M988.4,184.2c14,2.7,49.3,15.6,50.8,6.8"/>
<path class="st1" d="M1043.4,179.7c3.1-15,21.3-59.6,11.9-69"/>
<path class="st1" d="M1041.3,89.5c-2.1-4.1-52.9-42-61.7-28"/>
<path class="st1" d="M972.3,73.9c-4.7,11.9-14,57,0,74.7"/>
<path class="st1" d="M979.6,161.5c6.2,9.9,50.8,81.4,69,75.7"/>
<path class="st1" d="M1063.1,231.1c11.9-6.9,37.8-72.2,57-72.2"/>
<path class="st1" d="M1135.1,156.9c14.5,0,46.1-46.7,49.8-62.2"/>
<path class="st1" d="M1194.8,89.5c15-1,56-32.1,75.2,0"/>
<path class="st1" d="M1273,97.5c0,7,11.1,60.7,23.7,59.3"/>
<path class="st1" d="M1305,156.9c11.6-0.4,29.7,28.8,45,49.2"/>
<path class="st1" d="M1357.9,211.1c9.7,3.2,45.4,26.4,60.3,17.6"/>
<path class="st1" d="M1426.5,220.9c2.3-5.6,22.3-32.1,39.4-31.6"/>
<path class="st1" d="M1477.5,189.3c13,0.9,33.4-25,53.3-42.7"/>
<path class="st1" d="M1548.8,138c15.2-12.5,68.3-43.4,94.3-22.8"/>
<path class="st1" d="M1650.2,123.2c4.3,8.3,22.8,72.8,48.8,72.8"/>
<path class="st1" d="M1713.6,198.2c26,0,55.3-34.7,93.8-27.1"/>
<path class="st1" d="M1821,175c9.3,3.3,62.9,49,76.4,31.7"/>
<path class="st1" d="M1910,196c2.8-4.7,15.4-105.3,41.5-105.3"/>
<path class="st1" d="M1962.4,94.1c7.8,3.9,65.7,35.5,65.7,13.1"/>
<path class="st1" d="M2028.2,88.7c1.5-5.4-13.6-45.8-27.3-34.6"/>
<path class="st1" d="M1989.2,70.4c-6.3,15.8-27.8,105.4,3.9,110.8"/>
<path class="st1" d="M2010,181.2c10.2,0.6,86-19.9,101.4-6.2"/>
<path class="st1" d="M2120.4,186.7c3.8,11.3,9.8,60.9,24.8,60.1"/>
<path class="st1" d="M2161,246.8c14.3-2.3,72.1,9.8,75.9,0"/>
<path class="st1" d="M2245.9,240.1c5.3-7.5,26.3-28.9,50.3-29.5"/>
<path class="st1" d="M2311.3,210.6c10.5,0.2,77.4-3,85.7-14.6"/>
<path class="st1" d="M2405.4,189c11.9-10.3,44.9-35.1,69.7-27.9"/>
<path class="st1" d="M2483.6,166.3c6.5,7.4,14.3,42.2,37.8,40.9"/>
<ellipse class="st2" cx="2659.8" cy="207.2" rx="82.4" ry="38.8"/>
<g>
	<polygon points="2577.5,213.2 2538.5,207.2 2577.5,201.2 	"/>
</g>
<path d="M2618.1,239.3c-24.5-7-40.7-18.8-40.7-32.1s16.1-25.2,40.7-32.1c-1.7,8.1-3.1,18.1-3.3,29.4
	C2614.6,218.2,2616.2,230,2618.1,239.3z"/>
<path d="M2690.3,245c-6.6,0.6-13.5,1-20.6,1c-5.6,0-11-0.2-16.3-0.6c-1.7-11.2-2.9-24.5-2.8-39.4c0.1-13.9,1.4-26.3,3.2-36.9
	c5-0.4,10.3-0.6,15.9-0.6c7.1,0,13.9,0.3,20.6,1c-2.1,10.3-3.8,23.2-3.8,38.1C2686.5,222.1,2688.2,234.8,2690.3,245z"/>
<circle cx="2712.3" cy="199.6" r="12"/>
<circle class="st3" cx="2716" cy="192.7" r="3.7"/>
<g>
	<path d="M2729.1,230c-2.1-0.7-4-1.4-5.9-2.2c-1.9-0.8-3.8-1.7-5.6-2.8c-1.8-1-3.6-2.2-5.2-3.5c-1.6-1.3-3.1-2.9-4-4.7
		c1.3,1.6,3,2.7,4.7,3.6c1.7,0.9,3.6,1.6,5.5,2.2c1.9,0.6,3.8,1.1,5.7,1.5c1.9,0.4,3.9,0.7,5.8,0.9L2729.1,230z"/>
</g>
<g>
	<path d="M2633.4,111.5c0.5-0.7,1.2-1.2,2-1.7c0.7-0.5,1.5-0.9,2.3-1.3c1.5-0.8,3.1-1.4,4.7-2c1.5-0.6,3.1-1.3,4.4-2.1
		c0.6-0.4,1.2-0.9,1.4-1.3c0,0,0,0,0,0c0,0,0,0,0,0c0,0,0,0,0-0.1c0,0-0.1-0.1-0.1-0.1c-0.2-0.2-0.5-0.4-0.8-0.6
		c-1.3-0.8-3-1.4-4.5-2l-4.8-1.7c-0.8-0.3-1.6-0.6-2.4-1c-0.8-0.4-1.6-0.7-2.2-1.5c-0.3-0.4-0.4-1.1-0.2-1.5c0.2-0.6,0.7-0.8,1.1-1
		c0.8-0.4,1.7-0.6,2.5-0.8c3.4-0.8,6.8-1.1,10.2-1.3c3.4-0.2,6.8-0.4,10.2-0.5l10.1-0.3c1.7-0.1,3.4-0.1,5-0.3
		c0.8-0.1,1.7-0.2,2.4-0.4c0.4-0.1,0.8-0.2,1.1-0.4c0.3-0.2,0.6-0.5,0.6-0.9l0.2,0c0.2,0.5-0.2,1-0.5,1.3c-0.4,0.3-0.8,0.5-1.2,0.7
		c-0.8,0.4-1.6,0.6-2.5,0.8c-1.7,0.4-3.4,0.7-5.1,0.9c-3.4,0.4-6.8,0.7-10.2,0.8c-6.8,0.3-13.6,0.2-20.2,0.8
		c-0.8,0.1-1.6,0.2-2.4,0.5c-0.3,0.1-0.7,0.3-0.8,0.5c-0.1,0.3-0.1,0.6,0.1,0.8c0.4,0.6,1.2,1,1.9,1.3c0.7,0.4,1.5,0.6,2.3,0.9
		c3.2,1.1,6.6,1.4,9.9,2.8c0.4,0.2,0.8,0.5,1.3,0.8c0.1,0.1,0.2,0.2,0.3,0.3c0.1,0.2,0.2,0.3,0.3,0.5c0.1,0.2,0.1,0.4,0.1,0.6
		c0,0.2-0.1,0.4-0.1,0.6c-0.5,1.1-1.4,1.7-2.1,2.2c-1.6,0.9-3.2,1.5-4.8,2l-4.8,1.6c-1.6,0.6-3.2,1.1-4.5,2.1L2633.4,111.5z"/>
</g>
<g>
	<path d="M2727.8,184.8c4.1-6.4,8.1-13.1,11.8-19.8c1.9-3.4,3.6-6.8,5.3-10.2c1.6-3.5,3.2-7,4.3-10.6c0.5-1.8,1-3.7,0.9-5.3
		c-0.2-1.6-1-3.4-2.4-4.2c-2.9-1.7-7.4,0.1-8.7,3.4c-0.3,0.8-0.4,1.7-0.1,2.6c0.2,0.8,0.7,1.7,1.3,2.3c0.6,0.7,1.4,1.2,2.3,1.2
		c0.9,0.1,1.8-0.2,2.5-0.7c0.8-0.5,1.4-1.2,1.8-2.1c0.4-0.8,0.4-1.9-0.2-2.6c-0.6-0.7-1.4-1.4-2.3-1.4c-0.5,0-0.9,0.1-1.3,0.4
		c-0.2,0.1-0.4,0.3-0.5,0.5c-0.1,0.2-0.3,0.4-0.2,0.7c-0.1-0.2,0-0.5,0.2-0.7c0.1-0.2,0.3-0.4,0.5-0.5c0.4-0.3,0.9-0.4,1.4-0.4
		c1,0,1.9,0.7,2.5,1.4c0.7,0.8,0.8,2,0.4,2.9c-0.4,0.9-1,1.8-1.8,2.4c-0.8,0.6-1.8,1-2.9,0.9c-1.1,0-2.1-0.6-2.8-1.3
		c-0.7-0.8-1.3-1.6-1.6-2.6c-0.3-1-0.3-2.1,0-3.1c0.7-2,2.4-3.5,4.2-4.4c1.9-0.8,4.2-1.1,6.2,0c1,0.5,1.8,1.4,2.3,2.3
		c0.5,1,0.9,1.9,1.1,3c0.2,2.2-0.2,4.1-0.7,6.1c-1,3.8-2.4,7.5-4,11.1c-1.5,3.6-3.2,7.1-4.9,10.6c-3.5,6.9-7.2,13.7-11.1,20.5
		L2727.8,184.8z"/>
</g>
<g>
	<path d="M2721.5,182.3c0.5-7.6,0.8-15.3,0.8-23c0-3.8-0.1-7.7-0.3-11.5c-0.2-3.8-0.6-7.6-1.3-11.3c-0.4-1.8-0.9-3.7-1.8-5.1
		c-0.9-1.3-2.5-2.5-4.1-2.5c-3.4-0.1-6.5,3.7-6,7.2c0.1,0.9,0.5,1.7,1.1,2.3c0.6,0.6,1.4,1.1,2.3,1.4c0.8,0.3,1.8,0.3,2.6,0
		c0.8-0.3,1.5-1,1.9-1.9c0.4-0.8,0.6-1.8,0.5-2.7c-0.1-0.9-0.6-1.8-1.5-2.1c-0.9-0.3-1.9-0.5-2.7-0.1c-0.4,0.2-0.8,0.5-1,1
		c-0.1,0.2-0.2,0.4-0.2,0.7c0,0.2,0,0.5,0.1,0.7c-0.2-0.2-0.2-0.4-0.2-0.7c0-0.2,0.1-0.5,0.2-0.7c0.2-0.4,0.6-0.8,1-1
		c0.9-0.5,2-0.3,2.9,0c1,0.3,1.6,1.3,1.7,2.3c0.2,1,0,2-0.4,2.9c-0.4,0.9-1.1,1.8-2.1,2.2c-1,0.5-2.1,0.5-3.1,0.2
		c-1-0.3-1.9-0.8-2.7-1.5c-0.8-0.7-1.3-1.7-1.5-2.8c-0.4-2.1,0.4-4.2,1.6-5.9c1.2-1.6,3.2-3,5.4-3c1.1,0,2.2,0.3,3.1,0.9
		c0.9,0.6,1.7,1.2,2.4,2.1c1.2,1.8,1.8,3.7,2.3,5.6c1,3.8,1.5,7.7,1.9,11.6c0.4,3.9,0.6,7.8,0.8,11.6c0.3,7.8,0.4,15.5,0.2,23.3
		L2721.5,182.3z"/>
</g>
<g>
	<path d="M2680.3,136.8c0.3-2,1-3.9,2.1-5.6c1.1-1.7,2.6-3.2,4.1-4.4c1.5-1.3,3.2-2.3,4.8-3.5c0.7-0.6,1.5-1.1,1.9-1.8
		c0.2-0.3,0.3-0.6,0.2-0.8c0-0.3-0.1-0.6-0.4-0.9c-0.4-0.7-1.2-1.4-1.8-2c-0.7-0.6-1.5-1.2-2.2-1.8l-2.4-1.7
		c-0.8-0.6-1.6-1.1-2.4-1.8c-0.4-0.3-0.7-0.7-1.1-1.1c-0.3-0.4-0.5-1-0.5-1.6c0-0.6,0.3-1.1,0.6-1.5c0.3-0.4,0.7-0.8,1.1-1.1
		c0.8-0.6,1.6-1.2,2.5-1.6c0.9-0.5,1.8-0.9,2.8-1.2c3.9-1.3,7.9-1.5,11.8-1.5c4,0,7.9,0.2,11.8,0.4c1,0.1,1.9,0.1,2.9,0.1
		c0.9,0,1.9,0,2.7-0.1c0.2,0,0.4-0.1,0.4-0.1c0.1-0.1,0,0,0,0.2c0,0.1,0,0-0.1-0.1c-0.1-0.1-0.2-0.3-0.4-0.5c-0.3-0.3-0.6-0.7-0.9-1
		l-0.5-0.5l-0.6-0.4c-1.5-1.1-3.2-1.9-5.1-2.5c-1.8-0.6-3.7-1-5.7-1.3l0-0.2c2-0.1,4,0.1,5.9,0.5c2,0.4,3.9,1,5.7,2.1l0.7,0.4
		l0.6,0.5c0.4,0.3,0.8,0.7,1.2,1.1c0.2,0.2,0.4,0.4,0.6,0.7c0.2,0.3,0.4,0.6,0.4,1.3c0,0.3-0.2,0.6-0.3,0.8
		c-0.1,0.1-0.2,0.2-0.3,0.3c-0.1,0.1-0.2,0.1-0.3,0.2c-0.3,0.2-0.7,0.3-0.9,0.4c-1.1,0.3-2.1,0.3-3.1,0.3c-1,0-2,0-3,0
		c-3.9-0.2-7.8-0.6-11.7-0.7c-3.9-0.1-7.8-0.2-11.5,0.7c-0.9,0.2-1.8,0.5-2.7,0.9c-0.9,0.4-1.7,0.9-2.5,1.4
		c-0.8,0.5-1.5,1.3-1.6,2.1c-0.1,0.8,0.7,1.6,1.4,2.2c1.5,1.2,3.3,2.1,4.9,3.1c0.8,0.5,1.7,1.1,2.5,1.7c0.8,0.6,1.6,1.2,2.3,2.1
		c0.3,0.4,0.7,1,0.7,1.7c0.1,0.7-0.1,1.4-0.5,2c-0.7,1-1.5,1.6-2.4,2.2c-1.7,1.2-3.3,2.1-4.9,3.2c-3.1,2.2-5.7,5.1-6.9,8.8
		L2680.3,136.8z"/>
</g>
</svg>
