<?xml version="1.0" encoding="utf-8"?>
<!-- Generator: Adobe Illustrator 24.0.1, SVG Export Plug-In . SVG Version: 6.00 Build 0)  -->
<svg version="1.1" id="Layer_1" xmlns:serif="http://www.serif.com/"
	 xmlns="http://www.w3.org/2000/svg" xmlns:xlink="http://www.w3.org/1999/xlink" x="0px" y="0px" viewBox="0 0 504 504"
	 style="enable-background:new 0 0 504 504;" xml:space="preserve">
<style type="text/css">
	.st0{fill:#7F776A;}
</style>
<g>
	<path class="st0" d="M252,0c-68.4,0-77,0.3-103.9,1.5C121.3,2.7,103,7,86.9,13.2c-16.6,6.4-30.6,15.1-44.6,29.1
		S19.7,70.4,13.2,86.9C7,103,2.7,121.3,1.5,148.1C0.3,175,0,183.6,0,252s0.3,77,1.5,103.9C2.7,382.7,7,401,13.2,417.1
		c6.4,16.6,15.1,30.6,29.1,44.6s28.1,22.6,44.6,29.1c16,6.2,34.3,10.5,61.2,11.7S183.6,504,252,504s77-0.3,103.9-1.5
		c26.8-1.2,45.1-5.5,61.2-11.7c16.6-6.4,30.6-15.1,44.6-29.1s22.6-28.1,29.1-44.6c6.2-16,10.5-34.3,11.7-61.2
		c1.2-26.9,1.5-35.5,1.5-103.9s-0.3-77-1.5-103.9c-1.2-26.8-5.5-45.1-11.7-61.2c-6.4-16.6-15.1-30.6-29.1-44.6s-28.1-22.6-44.6-29.1
		C401,7,382.7,2.7,355.9,1.5C329,0.3,320.4,0,252,0z M252,45.4c67.3,0,75.3,0.3,101.8,1.5c24.6,1.1,37.9,5.2,46.8,8.7
		c11.8,4.6,20.2,10,29,18.9c8.8,8.8,14.3,17.2,18.9,29c3.5,8.9,7.6,22.2,8.7,46.8c1.2,26.6,1.5,34.5,1.5,101.8s-0.3,75.3-1.5,101.8
		c-1.1,24.6-5.2,37.9-8.7,46.8c-4.6,11.8-10,20.2-18.9,29c-8.8,8.8-17.2,14.3-29,18.9c-8.9,3.5-22.2,7.6-46.8,8.7
		c-26.6,1.2-34.5,1.5-101.8,1.5s-75.3-0.3-101.8-1.5c-24.6-1.1-37.9-5.2-46.8-8.7c-11.8-4.6-20.2-10-29-18.9
		c-8.8-8.8-14.3-17.2-18.8-29c-3.5-8.9-7.6-22.2-8.7-46.8c-1.2-26.6-1.5-34.5-1.5-101.8s0.3-75.3,1.5-101.8
		c1.1-24.6,5.2-37.9,8.7-46.8c4.6-11.8,10-20.2,18.8-29s17.2-14.3,29-18.9c8.9-3.5,22.2-7.6,46.8-8.7
		C176.7,45.7,184.7,45.4,252,45.4z"/>
	<path class="st0" d="M252,336c-46.4,0-84-37.6-84-84s37.6-84,84-84s84,37.6,84,84S298.4,336,252,336z M252,122.6
		c-71.5,0-129.4,57.9-129.4,129.4S180.5,381.4,252,381.4S381.4,323.5,381.4,252S323.5,122.6,252,122.6z"/>
	<path class="st0" d="M416.8,117.5c0,16.7-13.5,30.2-30.2,30.2s-30.2-13.5-30.2-30.2s13.5-30.2,30.2-30.2
		C403.2,87.2,416.8,100.8,416.8,117.5z"/>
</g>
</svg>
