<?xml version="1.0" encoding="utf-8"?>
<!-- Generator: Adobe Illustrator 24.0.1, SVG Export Plug-In . SVG Version: 6.00 Build 0)  -->
<svg version="1.1" id="Layer_1" xmlns:serif="http://www.serif.com/"
	 xmlns="http://www.w3.org/2000/svg" xmlns:xlink="http://www.w3.org/1999/xlink" x="0px" y="0px" viewBox="0 0 50 40.6"
	 style="enable-background:new 0 0 50 40.6;" xml:space="preserve">
<style type="text/css">
	.st0{fill:none;}
	.st1{fill:#7F776A;}
</style>
<rect x="-171.9" y="-176.6" class="st0" width="393.8" height="393.8"/>
<path class="st1" d="M15.7,40.6c18.9,0,29.2-15.6,29.2-29.2c0-0.4,0-0.9,0-1.3c2-1.4,3.7-3.3,5.1-5.3c-1.9,0.8-3.9,1.4-5.9,1.6
	c2.1-1.3,3.7-3.3,4.5-5.7c-2,1.2-4.2,2-6.5,2.5C40.2,1.2,37.5,0,34.6,0C29,0,24.4,4.6,24.4,10.3c0,0.8,0.1,1.6,0.3,2.3
	C16.4,12.2,8.7,8.3,3.5,1.9C0.8,6.5,2.2,12.6,6.6,15.6c-1.6,0-3.2-0.5-4.7-1.3v0.1c0,4.9,3.5,9.1,8.2,10.1c-1.5,0.4-3.1,0.5-4.6,0.2
	c1.3,4.2,5.2,7,9.6,7.1c-3.6,2.9-8.1,4.4-12.7,4.4c-0.8,0-1.6,0-2.4-0.1C4.7,39,10.1,40.6,15.7,40.6"/>
</svg>
